<?xml version="1.0" standalone="no"?>
<!DOCTYPE svg PUBLIC "-//W3C//DTD SVG 20010904//EN"
 "http://www.w3.org/TR/2001/REC-SVG-20010904/DTD/svg10.dtd">
<svg version="1.0" xmlns="http://www.w3.org/2000/svg"
 width="1432.000000pt" height="1432.000000pt" viewBox="0 0 1432.000000 1432.000000"
 preserveAspectRatio="xMidYMid meet">

<g transform="translate(0.000000,1432.000000) scale(0.100000,-0.100000)" stroke="none">
<path d="M3860 12473 c-223 -13 -512 -93 -720 -198 -285 -144 -586 -449 -733
-741 -30 -59 -80 -182 -117 -284 -22 -62 -50 -183 -59 -260 -31 -243 9 -718
60 -728 9 -1 46 18 85 44 125 85 262 142 459 194 216 56 174 55 4180 55 3425
0 3659 -1 3803 -18 123 -14 173 -25 264 -57 158 -57 259 -109 362 -186 256
-194 401 -389 510 -686 10 -27 23 -48 30 -48 24 0 172 181 231 281 91 159 170
336 199 451 46 178 51 220 51 438 0 182 -4 232 -23 330 -95 483 -362 883 -763
1143 -186 121 -359 187 -642 244 l-132 27 -3495 1 c-1922 1 -3520 0 -3550 -2z"/>
<path d="M2163 10078 c-98 -94 -115 -113 -190 -217 -140 -194 -237 -428 -268
-646 -27 -192 -28 -270 -6 -440 40 -315 125 -515 332 -775 213 -270 448 -418
829 -523 l115 -32 1244 -3 c984 -2 1247 0 1258 10 12 10 14 27 9 83 -16 177
-77 381 -163 545 -68 127 -96 170 -185 274 -167 197 -396 358 -658 464 -162
65 -171 67 -555 97 -282 22 -485 68 -688 156 -121 53 -262 144 -427 275 -147
117 -340 355 -422 519 -44 87 -105 233 -110 260 -7 40 -38 28 -115 -47z"/>
<path d="M11865 9369 c-166 -139 -442 -284 -635 -333 -250 -64 -152 -60 -1400
-66 l-1135 -5 -68 -27 c-102 -40 -149 -71 -214 -143 -103 -111 -153 -237 -153
-379 0 -123 13 -185 57 -274 45 -91 104 -158 193 -217 131 -87 17 -80 1245
-80 l1090 0 95 24 c182 45 385 140 526 246 347 260 554 731 512 1164 -10 103
-21 141 -40 141 -7 0 -40 -23 -73 -51z"/>
<path d="M5675 7380 l-120 -5 -3 -835 c-1 -459 2 -1391 8 -2070 7 -1015 12
-1252 24 -1330 41 -258 145 -487 306 -674 115 -133 210 -215 344 -294 203
-121 377 -176 642 -203 256 -26 579 46 798 178 357 215 580 526 669 932 20 93
21 126 24 996 4 935 1 1046 -38 1279 -51 312 -171 621 -349 904 -124 197 -304
395 -515 568 -416 342 -896 530 -1401 549 -82 3 -176 7 -209 8 -33 2 -114 1
-180 -3z"/>
</g>
</svg>
